<?xml version="1.0" encoding="UTF-8"?>
<svg id="Layer_1" data-name="Layer 1" xmlns="http://www.w3.org/2000/svg" viewBox="0 0 384 384">
  <defs>
    <style>
      .cls-1 {
        fill: none;
        stroke: #d1d1d1;
        stroke-miterlimit: 10;
        stroke-width: 1.19px;
      }

      .cls-2 {
        opacity: .2;
      }
    </style>
  </defs>
  <g class="cls-2">
    <rect class="cls-1" y=".25" width="384" height="384"/>
    <line class="cls-1" x1="384" y1="24.25" y2="24.25"/>
    <line class="cls-1" x1="384" y1="48.25" y2="48.25"/>
    <line class="cls-1" x1="384" y1="72.25" y2="72.25"/>
    <line class="cls-1" x1="384" y1="96.25" y2="96.25"/>
    <line class="cls-1" x1="384" y1="120.25" y2="120.25"/>
    <line class="cls-1" x1="384" y1="144.25" y2="144.25"/>
    <line class="cls-1" x1="384" y1="168.25" y2="168.25"/>
    <line class="cls-1" x1="384" y1="192.25" y2="192.25"/>
    <line class="cls-1" x1="384" y1="216.25" y2="216.25"/>
    <line class="cls-1" x1="384" y1="240.25" y2="240.25"/>
    <line class="cls-1" x1="384" y1="264.25" y2="264.25"/>
    <line class="cls-1" x1="384" y1="288.25" y2="288.25"/>
    <line class="cls-1" x1="384" y1="312.25" y2="312.25"/>
    <line class="cls-1" x1="384" y1="336.25" y2="336.25"/>
    <line class="cls-1" x1="384" y1="360.25" y2="360.25"/>
    <line class="cls-1" x1="24" y1="384.25" x2="24" y2=".25"/>
    <line class="cls-1" x1="48" y1="384.25" x2="48" y2=".25"/>
    <line class="cls-1" x1="72" y1="384.25" x2="72" y2=".25"/>
    <line class="cls-1" x1="96" y1="384.25" x2="96" y2=".25"/>
    <line class="cls-1" x1="120" y1="384.25" x2="120" y2=".25"/>
    <line class="cls-1" x1="144" y1="384.25" x2="144" y2=".25"/>
    <line class="cls-1" x1="168" y1="384.25" x2="168" y2=".25"/>
    <line class="cls-1" x1="192" y1="384.25" x2="192" y2=".25"/>
    <line class="cls-1" x1="216" y1="384.25" x2="216" y2=".25"/>
    <line class="cls-1" x1="240" y1="384.25" x2="240" y2=".25"/>
    <line class="cls-1" x1="264" y1="384.25" x2="264" y2=".25"/>
    <line class="cls-1" x1="288" y1="384.25" x2="288" y2=".25"/>
    <line class="cls-1" x1="312" y1="384.25" x2="312" y2=".25"/>
    <line class="cls-1" x1="336" y1="384.25" x2="336" y2=".25"/>
    <line class="cls-1" x1="360" y1="384.25" x2="360" y2=".25"/>
  </g>
  <g>
    <path d="m144.12,96.12c105.73,0,191.75,86.02,191.75,191.75h-96c0-52.8-42.95-95.75-95.75-95.75v-96Z"/>
    <path d="m144.12,96.12c105.73,0,191.75,86.02,191.75,191.75h-96c0-52.8-42.95-95.75-95.75-95.75v-96Z"/>
    <path d="m144.12,191.88c-53.02,0-96,42.98-96,96h96v-96Z"/>
  </g>
</svg>