<?xml version="1.0" encoding="UTF-8"?>
<svg id="Layer_5_copy" data-name="Layer 5 copy" xmlns="http://www.w3.org/2000/svg" xmlns:xlink="http://www.w3.org/1999/xlink" viewBox="0 0 1920 1080">
  <defs>
    <style>
      .cls-1 {
        clip-path: url(#clippath);
      }

      .cls-2 {
        fill: none;
      }

      .cls-2, .cls-3, .cls-4, .cls-5, .cls-6 {
        stroke-width: 0px;
      }

      .cls-3 {
        fill: url(#linear-gradient);
      }

      .cls-4 {
        fill: url(#linear-gradient-2);
      }

      .cls-5 {
        fill: url(#linear-gradient-3);
      }
    </style>
    <clipPath id="clippath">
      <rect class="cls-2" width="1920" height="1080" transform="translate(1920 1080) rotate(180)"/>
    </clipPath>
    <linearGradient id="linear-gradient" x1="1953.89" y1="809.45" x2="549.4" y2="1246.08" gradientUnits="userSpaceOnUse">
      <stop offset=".03" stop-color="#121212" stop-opacity="0"/>
      <stop offset="1" stop-color="#ff7300"/>
    </linearGradient>
    <linearGradient id="linear-gradient-2" x1="2321.01" y1="2170.03" x2="788.49" y2="1403.77" gradientUnits="userSpaceOnUse">
      <stop offset="0" stop-color="#3f4142" stop-opacity="0"/>
      <stop offset="1" stop-color="#3f4142"/>
    </linearGradient>
    <linearGradient id="linear-gradient-3" x1="9.02" y1="-276.29" x2="1289.01" y2="-276.29" xlink:href="#linear-gradient-2"/>
  </defs>
  <rect class="cls-6" width="1920" height="1080" transform="translate(1920 1080) rotate(180)"/>
  <g class="cls-1">
    <path class="cls-3" d="M1828.29,87.84c-882.08,0-1597.15,715.07-1597.15,1597.15h1597.15V87.84Z"/>
    <g>
      <path class="cls-4" d="M1291.44,363.89l1293.74-1.19C2586.49,1787.47,1426.82,2947.67.08,2948.98l-1.19-1291.95c713.37-.66,1293.2-580.76,1292.55-1293.14Z"/>
      <path class="cls-5" d="M1289.01,363.7c0-706.91-573.07-1279.98-1279.98-1279.98V363.7h1279.98Z"/>
    </g>
  </g>
</svg>