<?xml version="1.0" encoding="UTF-8"?>
<svg id="Layer_1" data-name="Layer 1" xmlns="http://www.w3.org/2000/svg" xmlns:xlink="http://www.w3.org/1999/xlink" viewBox="0 0 481.8 481.8">
  <defs>
    <style>
      .cls-1 {
        fill: url(#linear-gradient);
      }

      .cls-2 {
        fill: #3e0000;
      }

      .cls-3 {
        fill: url(#linear-gradient-3);
      }

      .cls-4 {
        fill: url(#linear-gradient-2);
      }

      .cls-5 {
        fill: none;
        stroke: #d1d1d1;
        stroke-miterlimit: 10;
        stroke-width: 1.19px;
      }

      .cls-6 {
        opacity: .2;
      }
    </style>
    <linearGradient id="linear-gradient" x1="288.84" y1="260.9" x2="288.84" y2="89.44" gradientUnits="userSpaceOnUse">
      <stop offset=".02" stop-color="#ff1d25" stop-opacity="0"/>
      <stop offset="1" stop-color="#ff1d25"/>
    </linearGradient>
    <linearGradient id="linear-gradient-2" x1="288.84" y1="260.9" x2="288.84" y2="89.44" gradientUnits="userSpaceOnUse">
      <stop offset=".02" stop-color="#ff1d25" stop-opacity="0"/>
      <stop offset=".77" stop-color="#ff1d25"/>
    </linearGradient>
    <linearGradient id="linear-gradient-3" x1="192.96" y1="85.84" x2="192.96" y2="373.84" gradientUnits="userSpaceOnUse">
      <stop offset=".02" stop-color="#ff1d25" stop-opacity="0"/>
      <stop offset=".83" stop-color="#ff1d25"/>
    </linearGradient>
  </defs>
  <g class="cls-6">
    <rect class="cls-5" x="48.9" y="49.15" width="384" height="384"/>
    <line class="cls-5" x1="432.9" y1="73.15" x2="48.9" y2="73.15"/>
    <line class="cls-5" x1="432.9" y1="97.15" x2="48.9" y2="97.15"/>
    <line class="cls-5" x1="432.9" y1="121.15" x2="48.9" y2="121.15"/>
    <line class="cls-5" x1="432.9" y1="145.15" x2="48.9" y2="145.15"/>
    <line class="cls-5" x1="432.9" y1="169.15" x2="48.9" y2="169.15"/>
    <line class="cls-5" x1="432.9" y1="193.15" x2="48.9" y2="193.15"/>
    <line class="cls-5" x1="432.9" y1="217.15" x2="48.9" y2="217.15"/>
    <line class="cls-5" x1="432.9" y1="241.15" x2="48.9" y2="241.15"/>
    <line class="cls-5" x1="432.9" y1="265.15" x2="48.9" y2="265.15"/>
    <line class="cls-5" x1="432.9" y1="289.15" x2="48.9" y2="289.15"/>
    <line class="cls-5" x1="432.9" y1="313.15" x2="48.9" y2="313.15"/>
    <line class="cls-5" x1="432.9" y1="337.15" x2="48.9" y2="337.15"/>
    <line class="cls-5" x1="432.9" y1="361.15" x2="48.9" y2="361.15"/>
    <line class="cls-5" x1="432.9" y1="385.15" x2="48.9" y2="385.15"/>
    <line class="cls-5" x1="432.9" y1="409.15" x2="48.9" y2="409.15"/>
    <line class="cls-5" x1="72.9" y1="433.15" x2="72.9" y2="49.15"/>
    <line class="cls-5" x1="96.9" y1="433.15" x2="96.9" y2="49.15"/>
    <line class="cls-5" x1="120.9" y1="433.15" x2="120.9" y2="49.15"/>
    <line class="cls-5" x1="144.9" y1="433.15" x2="144.9" y2="49.15"/>
    <line class="cls-5" x1="168.9" y1="433.15" x2="168.9" y2="49.15"/>
    <line class="cls-5" x1="192.9" y1="433.15" x2="192.9" y2="49.15"/>
    <line class="cls-5" x1="216.9" y1="433.15" x2="216.9" y2="49.15"/>
    <line class="cls-5" x1="240.9" y1="433.15" x2="240.9" y2="49.15"/>
    <line class="cls-5" x1="264.9" y1="433.15" x2="264.9" y2="49.15"/>
    <line class="cls-5" x1="288.9" y1="433.15" x2="288.9" y2="49.15"/>
    <line class="cls-5" x1="312.9" y1="433.15" x2="312.9" y2="49.15"/>
    <line class="cls-5" x1="336.9" y1="433.15" x2="336.9" y2="49.15"/>
    <line class="cls-5" x1="360.9" y1="433.15" x2="360.9" y2="49.15"/>
    <line class="cls-5" x1="384.9" y1="433.15" x2="384.9" y2="49.15"/>
    <line class="cls-5" x1="408.9" y1="433.15" x2="408.9" y2="49.15"/>
  </g>
  <g>
    <path d="m193.03,145.03c105.73,0,191.75,86.02,191.75,191.75h-96c0-52.8-42.95-95.75-95.75-95.75v-96Z"/>
    <path d="m193.03,145.03c105.73,0,191.75,86.02,191.75,191.75h-96c0-52.8-42.95-95.75-95.75-95.75v-96Z"/>
    <path d="m193.03,240.78c-53.02,0-96,42.98-96,96h96v-96Z"/>
  </g>
  <path class="cls-2" d="m1.28,264.96C1.28,13.45,13.26,1.47,264.77,1.47h-47.91c251.52,0,263.49,11.98,263.49,263.49v-47.91c0,251.52-11.98,263.49-263.49,263.49h47.91C13.26,480.55,1.28,468.57,1.28,217.06v47.91Z"/>
  <g>
    <g>
      <path class="cls-1" d="m336.84,84.9h-96v96c53.02,0,96-42.98,96-96Z"/>
      <path class="cls-4" d="m240.84,255.31h96v-96c-53.02,0-96,42.98-96,96Z"/>
    </g>
    <rect class="cls-3" x="144.96" y="84.9" width="96" height="288"/>
  </g>
</svg>