<?xml version="1.0" encoding="UTF-8"?>
<svg id="Layer_1" data-name="Layer 1" xmlns="http://www.w3.org/2000/svg" viewBox="0 0 384 384">
  <defs>
    <style>
      .cls-1 {
        stroke: #000;
        stroke-width: 96px;
      }

      .cls-1, .cls-2 {
        fill: none;
        stroke-miterlimit: 10;
      }

      .cls-2 {
        stroke: #d1d1d1;
        stroke-width: 1.19px;
      }

      .cls-3 {
        opacity: .2;
      }
    </style>
  </defs>
  <g class="cls-3">
    <rect class="cls-2" y="0" width="384" height="384"/>
    <line class="cls-2" x1="384" y1="24" y2="24"/>
    <line class="cls-2" x1="384" y1="48" y2="48"/>
    <line class="cls-2" x1="384" y1="72" y2="72"/>
    <line class="cls-2" x1="384" y1="96" y2="96"/>
    <line class="cls-2" x1="384" y1="120" y2="120"/>
    <line class="cls-2" x1="384" y1="144" y2="144"/>
    <line class="cls-2" x1="384" y1="168" y2="168"/>
    <line class="cls-2" x1="384" y1="192" y2="192"/>
    <line class="cls-2" x1="384" y1="216" y2="216"/>
    <line class="cls-2" x1="384" y1="240" y2="240"/>
    <line class="cls-2" x1="384" y1="264" y2="264"/>
    <line class="cls-2" x1="384" y1="288" y2="288"/>
    <line class="cls-2" x1="384" y1="312" y2="312"/>
    <line class="cls-2" x1="384" y1="336" y2="336"/>
    <line class="cls-2" x1="384" y1="360" y2="360"/>
    <line class="cls-2" x1="24" y1="384" x2="24" y2="0"/>
    <line class="cls-2" x1="48" y1="384" x2="48" y2="0"/>
    <line class="cls-2" x1="72" y1="384" x2="72" y2="0"/>
    <line class="cls-2" x1="96" y1="384" x2="96" y2="0"/>
    <line class="cls-2" x1="120" y1="384" x2="120" y2="0"/>
    <line class="cls-2" x1="144" y1="384" x2="144" y2="0"/>
    <line class="cls-2" x1="168" y1="384" x2="168" y2="0"/>
    <line class="cls-2" x1="192" y1="384" x2="192" y2="0"/>
    <line class="cls-2" x1="216" y1="384" x2="216" y2="0"/>
    <line class="cls-2" x1="240" y1="384" x2="240" y2="0"/>
    <line class="cls-2" x1="264" y1="384" x2="264" y2="0"/>
    <line class="cls-2" x1="288" y1="384" x2="288" y2="0"/>
    <line class="cls-2" x1="312" y1="384" x2="312" y2="0"/>
    <line class="cls-2" x1="336" y1="384" x2="336" y2="0"/>
    <line class="cls-2" x1="360" y1="384" x2="360" y2="0"/>
  </g>
  <g>
    <path d="m336,48c0,53.02-42.98,96-96,96V48s96,0,96,0Z"/>
    <path class="cls-1" d="m72,96h77.58c23.43,0,42.42,18.99,42.42,42.42v197.58"/>
  </g>
</svg>