<?xml version="1.0" encoding="UTF-8"?>
<svg id="Layer_1" data-name="Layer 1" xmlns="http://www.w3.org/2000/svg" viewBox="0 0 385.19 385.19">
  <defs>
    <style>
      .cls-1 {
        stroke: #003bff;
        stroke-width: 96px;
      }

      .cls-1, .cls-2 {
        fill: none;
        stroke-miterlimit: 10;
      }

      .cls-3 {
        fill: #003bff;
      }

      .cls-4 {
        fill: #002a46;
      }

      .cls-2 {
        stroke: #d1d1d1;
        stroke-width: 1.19px;
      }

      .cls-5 {
        opacity: .2;
      }
    </style>
  </defs>
  <rect class="cls-4" x=".31" y=".35" width="384" height="384"/>
  <g class="cls-5">
    <rect class="cls-2" x=".59" y=".59" width="384" height="384"/>
    <line class="cls-2" x1="384.59" y1="24.59" x2=".59" y2="24.59"/>
    <line class="cls-2" x1="384.59" y1="48.59" x2=".59" y2="48.59"/>
    <line class="cls-2" x1="384.59" y1="72.59" x2=".59" y2="72.59"/>
    <line class="cls-2" x1="384.59" y1="96.59" x2=".59" y2="96.59"/>
    <line class="cls-2" x1="384.59" y1="120.59" x2=".59" y2="120.59"/>
    <line class="cls-2" x1="384.59" y1="144.59" x2=".59" y2="144.59"/>
    <line class="cls-2" x1="384.59" y1="168.59" x2=".59" y2="168.59"/>
    <line class="cls-2" x1="384.59" y1="192.59" x2=".59" y2="192.59"/>
    <line class="cls-2" x1="384.59" y1="216.59" x2=".59" y2="216.59"/>
    <line class="cls-2" x1="384.59" y1="240.59" x2=".59" y2="240.59"/>
    <line class="cls-2" x1="384.59" y1="264.59" x2=".59" y2="264.59"/>
    <line class="cls-2" x1="384.59" y1="288.59" x2=".59" y2="288.59"/>
    <line class="cls-2" x1="384.59" y1="312.59" x2=".59" y2="312.59"/>
    <line class="cls-2" x1="384.59" y1="336.59" x2=".59" y2="336.59"/>
    <line class="cls-2" x1="384.59" y1="360.59" x2=".59" y2="360.59"/>
    <line class="cls-2" x1="24.59" y1="384.59" x2="24.59" y2=".59"/>
    <line class="cls-2" x1="48.59" y1="384.59" x2="48.59" y2=".59"/>
    <line class="cls-2" x1="72.59" y1="384.59" x2="72.59" y2=".59"/>
    <line class="cls-2" x1="96.59" y1="384.59" x2="96.59" y2=".59"/>
    <line class="cls-2" x1="120.59" y1="384.59" x2="120.59" y2=".59"/>
    <line class="cls-2" x1="144.59" y1="384.59" x2="144.59" y2=".59"/>
    <line class="cls-2" x1="168.59" y1="384.59" x2="168.59" y2=".59"/>
    <line class="cls-2" x1="192.59" y1="384.59" x2="192.59" y2=".59"/>
    <line class="cls-2" x1="216.59" y1="384.59" x2="216.59" y2=".59"/>
    <line class="cls-2" x1="240.59" y1="384.59" x2="240.59" y2=".59"/>
    <line class="cls-2" x1="264.59" y1="384.59" x2="264.59" y2=".59"/>
    <line class="cls-2" x1="288.59" y1="384.59" x2="288.59" y2=".59"/>
    <line class="cls-2" x1="312.59" y1="384.59" x2="312.59" y2=".59"/>
    <line class="cls-2" x1="336.59" y1="384.59" x2="336.59" y2=".59"/>
    <line class="cls-2" x1="360.59" y1="384.59" x2="360.59" y2=".59"/>
  </g>
  <path class="cls-1" d="m120.39,240.47h0c0-79.39,64.36-143.75,143.75-143.75"/>
  <path class="cls-3" d="m168.42,240.47c0,53.02,42.98,96,96,96v-96h-96Z"/>
</svg>