<?xml version="1.0" encoding="UTF-8"?>
<svg id="Layer_1" data-name="Layer 1" xmlns="http://www.w3.org/2000/svg" viewBox="0 0 384 384">
  <defs>
    <style>
      .cls-1 {
        stroke: #003bff;
        stroke-width: 96px;
      }

      .cls-1, .cls-2 {
        fill: none;
        stroke-miterlimit: 10;
      }

      .cls-3 {
        fill: #003bff;
      }

      .cls-4 {
        fill: #002a46;
      }

      .cls-2 {
        stroke: #d1d1d1;
        stroke-width: 1.19px;
      }

      .cls-5 {
        opacity: .2;
      }
    </style>
  </defs>
  <rect class="cls-4" width="384" height="384"/>
  <g class="cls-5">
    <rect class="cls-2" x=".28" y=".25" width="384" height="384"/>
    <line class="cls-2" x1="384.28" y1="24.25" x2=".28" y2="24.25"/>
    <line class="cls-2" x1="384.28" y1="48.25" x2=".28" y2="48.25"/>
    <line class="cls-2" x1="384.28" y1="72.25" x2=".28" y2="72.25"/>
    <line class="cls-2" x1="384.28" y1="96.25" x2=".28" y2="96.25"/>
    <line class="cls-2" x1="384.28" y1="120.25" x2=".28" y2="120.25"/>
    <line class="cls-2" x1="384.28" y1="144.25" x2=".28" y2="144.25"/>
    <line class="cls-2" x1="384.28" y1="168.25" x2=".28" y2="168.25"/>
    <line class="cls-2" x1="384.28" y1="192.25" x2=".28" y2="192.25"/>
    <line class="cls-2" x1="384.28" y1="216.25" x2=".28" y2="216.25"/>
    <line class="cls-2" x1="384.28" y1="240.25" x2=".28" y2="240.25"/>
    <line class="cls-2" x1="384.28" y1="264.25" x2=".28" y2="264.25"/>
    <line class="cls-2" x1="384.28" y1="288.25" x2=".28" y2="288.25"/>
    <line class="cls-2" x1="384.28" y1="312.25" x2=".28" y2="312.25"/>
    <line class="cls-2" x1="384.28" y1="336.25" x2=".28" y2="336.25"/>
    <line class="cls-2" x1="384.28" y1="360.25" x2=".28" y2="360.25"/>
    <line class="cls-2" x1="24.28" y1="384.25" x2="24.28" y2=".25"/>
    <line class="cls-2" x1="48.28" y1="384.25" x2="48.28" y2=".25"/>
    <line class="cls-2" x1="72.28" y1="384.25" x2="72.28" y2=".25"/>
    <line class="cls-2" x1="96.28" y1="384.25" x2="96.28" y2=".25"/>
    <line class="cls-2" x1="120.28" y1="384.25" x2="120.28" y2=".25"/>
    <line class="cls-2" x1="144.28" y1="384.25" x2="144.28" y2=".25"/>
    <line class="cls-2" x1="168.28" y1="384.25" x2="168.28" y2=".25"/>
    <line class="cls-2" x1="192.28" y1="384.25" x2="192.28" y2=".25"/>
    <line class="cls-2" x1="216.28" y1="384.25" x2="216.28" y2=".25"/>
    <line class="cls-2" x1="240.28" y1="384.25" x2="240.28" y2=".25"/>
    <line class="cls-2" x1="264.28" y1="384.25" x2="264.28" y2=".25"/>
    <line class="cls-2" x1="288.28" y1="384.25" x2="288.28" y2=".25"/>
    <line class="cls-2" x1="312.28" y1="384.25" x2="312.28" y2=".25"/>
    <line class="cls-2" x1="336.28" y1="384.25" x2="336.28" y2=".25"/>
    <line class="cls-2" x1="360.28" y1="384.25" x2="360.28" y2=".25"/>
  </g>
  <path class="cls-3" d="m336.22,47.87c-53.02,0-96,42.98-96,96h96s0-96,0-96Z"/>
  <path class="cls-1" d="m288.12,192c0,53.09-43.04,96.12-96.12,96.12h0c-53.09,0-96.12-43.04-96.12-96.12h0c0-53.09,43.04-96.12,96.12-96.12h48.25"/>
</svg>